<svg width="280" height="120" viewBox="0 0 280 120" fill="none" xmlns="http://www.w3.org/2000/svg">
<g clip-path="url(#clip0_1655_202)">
<path d="M0 8C0 3.58172 3.58172 0 8 0H272C276.418 0 280 3.58172 280 8V112C280 116.418 276.418 120 272 120H8C3.58172 120 0 116.418 0 112V8Z" fill="white"/>
<path d="M154.023 54.4029C152.521 54.2027 151.037 53.9882 149.571 53.7597C148.154 53.5395 146.757 53.2328 145.379 52.8394C145.34 52.8286 145.297 52.828 145.249 52.8376L143.927 41.2543C143.926 41.2374 143.928 41.2204 143.934 41.2046C143.939 41.1888 143.949 41.1747 143.961 41.1632C145.046 40.1449 145.732 38.9143 146.02 37.4714C146.228 36.4261 146.177 35.3822 145.867 34.3399C145.169 31.9915 143.203 30.2547 140.806 29.7558C139.552 29.4954 138.33 29.5994 137.139 30.068C135.391 30.7548 134.149 31.9283 133.415 33.5883C133.204 34.0647 133.059 34.5432 132.981 35.0237C132.918 35.4117 132.851 35.9332 132.878 36.3761C132.997 38.2942 133.768 39.8992 135.192 41.1912C135.203 41.2007 135.211 41.2125 135.215 41.2257C135.22 41.2389 135.222 41.253 135.22 41.267L134.231 49.4806C133.836 49.3037 133.447 49.1305 133.064 48.9609C124.205 45.0357 116.592 39.4256 110.225 32.1304C108.392 30.0295 106.664 27.7728 105.042 25.3603C105.015 25.3206 104.984 25.3074 104.948 25.3206L104.947 25.2178C104.947 25.2032 104.952 25.1891 104.961 25.1776C104.969 25.166 104.982 25.1576 104.996 25.1537C107.861 24.3904 110.577 23.5048 113.145 22.4967C123.187 18.5547 131.993 12.7289 139.564 5.01935C139.57 5.01324 139.577 5.00837 139.585 5.00504C139.593 5.00172 139.601 5 139.609 5C139.618 5 139.626 5.00172 139.634 5.00504C139.642 5.00837 139.649 5.01324 139.655 5.01935C141.179 6.59579 142.714 8.05435 144.259 9.39501C153.024 16.9945 163.018 22.2787 174.24 25.2475C174.257 25.2519 174.272 25.2616 174.282 25.2753C174.293 25.289 174.299 25.3058 174.299 25.3233C174.319 30.7672 173.726 36.1268 172.518 41.4023C172.503 41.4688 172.468 41.5299 172.419 41.5782C168.354 45.5334 163.845 48.9104 158.89 51.709C156.666 52.9648 155.044 53.8628 154.023 54.4029Z" fill="#71D941"/>
<path d="M162.411 62.0679L162.368 62.0761C162.344 62.0808 162.322 62.0894 162.301 62.1013C150.9 68.5412 138.257 72.9169 125.331 75.0073C125.313 75.0103 125.296 75.0208 125.283 75.0388C125.266 75.0232 125.249 75.0169 125.232 75.0199C121.962 75.5396 118.519 75.9492 115.265 76.0755C112.011 76.2009 108.764 75.9546 105.571 75.24C101.099 74.2395 96.2101 72.9954 92.7493 69.7709C88.8807 66.1666 88.0299 61.1125 88.9114 56.0719C89.1766 54.5526 89.5176 53.2105 89.9345 52.0454C90.8637 49.4471 92.2248 47.1224 94.0178 45.0714C94.0212 45.0673 94.026 45.0646 94.0312 45.0638C94.0365 45.063 94.0419 45.0641 94.0464 45.067C94.0508 45.0699 94.0541 45.0744 94.0555 45.0795C94.0568 45.0847 94.0563 45.0901 94.0539 45.0949C92.6555 48.0983 91.7831 51.5745 92.1232 54.8828C92.4462 58.0231 93.8277 60.5649 96.2679 62.5082C97.3457 63.3665 98.5309 64.0838 99.8234 64.66C106.125 67.4703 113.195 67.9169 119.941 67.4523C124.096 67.166 128.552 66.465 133.309 65.3492C136.422 64.6191 139.442 63.7517 142.368 62.7473C143.655 62.3058 145.089 61.7489 146.671 61.0764C149.568 59.8446 152.275 58.5599 154.792 57.2222C162.496 53.1281 169.666 48.0307 175.673 41.7892C178.331 39.0276 180.725 36.0206 182.629 32.6852C183.42 31.2982 184.061 29.8878 184.552 28.4539C185.035 27.0398 185.323 25.5217 185.417 23.8996C185.64 20.0346 184.346 16.5241 181.531 13.8716C179.574 12.0266 177.109 10.7185 174.545 9.92813C174.541 9.92672 174.537 9.92363 174.534 9.91945C174.532 9.91528 174.531 9.91031 174.531 9.9055C174.532 9.90069 174.535 9.89639 174.539 9.8934C174.543 9.89042 174.548 9.88897 174.552 9.88934C175.998 10.0108 177.403 10.2677 178.765 10.6598C181.618 11.4808 184.183 12.8774 186.459 14.8496C187.934 16.1277 189.172 17.5358 190.175 19.0737C191.909 21.7343 192.592 24.6935 192.286 27.8223C192.049 30.2438 191.288 32.6364 190.25 34.8504C189.355 36.7577 188.281 38.6228 187.027 40.4459C184.125 44.6664 180.587 48.5431 176.734 52.0969C173.691 54.9045 170.504 57.2574 166.921 59.4019C165.42 60.3005 163.967 61.1483 162.563 61.9452C162.524 61.9675 162.473 62.0084 162.411 62.0679Z" fill="#0477BF"/>
<path d="M134.231 49.4805L132.867 60.5676C132.867 60.5737 132.867 60.5799 132.869 60.5857C132.871 60.5915 132.874 60.5969 132.878 60.6015C132.882 60.6061 132.887 60.6098 132.892 60.6123C132.898 60.6149 132.904 60.6162 132.91 60.6163L138.939 60.7191C138.944 60.7192 138.948 60.7209 138.951 60.7239C138.955 60.7268 138.957 60.7309 138.958 60.7353C138.958 60.7398 138.957 60.7443 138.955 60.7481C138.952 60.7519 138.949 60.7548 138.945 60.7561C131.995 63.1349 124.85 64.5117 117.509 64.8864C117.496 64.8872 117.483 64.8847 117.471 64.879C117.459 64.8733 117.448 64.8647 117.441 64.8539C112.754 58.3491 109.204 51.1008 107.083 43.3681C105.485 37.5357 104.773 31.5198 104.948 25.3205C104.984 25.3073 105.015 25.3205 105.042 25.3602C106.664 27.7727 108.392 30.0294 110.225 32.1303C116.592 39.4255 124.205 45.0356 133.064 48.9608C133.447 49.1304 133.836 49.3036 134.231 49.4805Z" fill="#3AA637"/>
<path d="M154.023 54.4026C151.367 55.8347 148.682 57.1973 145.967 58.4905C145.959 58.4942 145.95 58.4959 145.941 58.4956C145.933 58.4953 145.924 58.4929 145.917 58.4886C145.909 58.4844 145.903 58.4784 145.898 58.4712C145.893 58.464 145.89 58.4558 145.889 58.4472L145.249 52.8373C145.296 52.8277 145.34 52.8283 145.379 52.8391C146.757 53.2325 148.154 53.5392 149.57 53.7594C151.037 53.9879 152.521 54.2024 154.023 54.4026Z" fill="#3AA637"/>
<path d="M162.41 62.0677C156.27 71.5215 148.465 79.3021 138.995 85.4093C138.983 85.4168 138.97 85.4211 138.956 85.4219C138.942 85.4227 138.929 85.4199 138.916 85.4139C133.703 82.8865 129.177 79.4624 125.34 75.1414C125.311 75.1084 125.291 75.0741 125.282 75.0386C125.296 75.0205 125.312 75.01 125.331 75.007C138.257 72.9166 150.9 68.541 162.3 62.1011C162.321 62.0891 162.344 62.0806 162.368 62.0758L162.41 62.0677Z" fill="#3AA637"/>
<path d="M81.0388 100.123C82.2739 100.38 82.9767 101.524 82.328 102.697C81.839 103.581 80.9377 103.773 79.9733 103.811C79.8386 103.817 78.531 103.818 76.0505 103.814C76.0438 103.814 76.0372 103.813 76.031 103.81C76.0248 103.808 76.0192 103.804 76.0145 103.799C76.0098 103.794 76.0061 103.789 76.0036 103.782C76.0011 103.776 75.9999 103.769 76 103.763L76.0018 103.661C76.0019 103.654 76.0034 103.647 76.0061 103.641C76.0088 103.635 76.0127 103.63 76.0176 103.625C76.0224 103.62 76.0282 103.617 76.0345 103.614C76.0407 103.612 76.0474 103.611 76.0541 103.611C76.5531 103.627 77.0312 103.516 77.0339 102.907C77.0478 99.7179 77.0466 97.8883 77.0303 97.4185C77.0087 96.8041 76.5458 96.7437 76.046 96.7545C76.0399 96.7546 76.0339 96.7535 76.0283 96.7513C76.0226 96.749 76.0175 96.7456 76.0132 96.7413C76.0089 96.737 76.0055 96.7319 76.0033 96.7262C76.001 96.7206 75.9999 96.7146 76 96.7085L76.0018 96.5768C76.0021 96.5645 76.0071 96.5528 76.0159 96.5442C76.0246 96.5356 76.0364 96.5308 76.0487 96.5308C77.4002 96.5277 78.5349 96.5287 79.4527 96.5335C80.0109 96.5365 80.514 96.618 80.9621 96.778C81.9247 97.1217 82.5346 98.1664 82.0889 99.1498C81.8823 99.6054 81.5061 99.8896 81.0352 100.075C81.0303 100.078 81.0261 100.081 81.0234 100.086C81.0206 100.09 81.0193 100.095 81.0197 100.101C81.0201 100.106 81.0222 100.111 81.0256 100.115C81.029 100.119 81.0336 100.122 81.0388 100.123ZM78.1707 99.8202C78.6284 99.8731 79.0988 99.8851 79.5817 99.8563C80.1916 99.8202 80.7447 99.5856 80.9747 98.9802C81.314 98.0889 80.7753 97.2516 79.9038 97.0234C79.3348 96.8742 78.7514 96.873 78.1536 97.0198C78.1386 97.0234 78.1253 97.032 78.1158 97.0441C78.1063 97.0562 78.1012 97.0711 78.1012 97.0865V99.7426C78.1013 99.7618 78.1084 99.7803 78.1212 99.7946C78.134 99.8089 78.1516 99.818 78.1707 99.8202ZM78.1012 100.389V103.231C78.1013 103.244 78.1054 103.256 78.1129 103.265C78.1204 103.275 78.1309 103.282 78.1427 103.285C78.6498 103.404 79.1616 103.442 79.6783 103.401C80.7582 103.313 81.6198 102.475 81.1858 101.356C80.9026 100.627 80.1537 100.337 79.404 100.289C78.9018 100.257 78.4901 100.264 78.1689 100.311C78.1501 100.314 78.1329 100.323 78.1205 100.338C78.1081 100.352 78.1012 100.37 78.1012 100.389Z" fill="black"/>
<path d="M88.7237 96.5332C89.3895 96.5338 89.8953 96.5335 90.2412 96.5323C90.2551 96.5323 90.2684 96.5378 90.2782 96.5476C90.288 96.5574 90.2935 96.5707 90.2935 96.5846V96.6983C90.2935 96.7047 90.2922 96.7111 90.2897 96.7171C90.2872 96.7231 90.2836 96.7285 90.2789 96.733C90.2743 96.7376 90.2688 96.7411 90.2628 96.7435C90.2568 96.7459 90.2504 96.7471 90.2439 96.747C89.8938 96.7416 89.5348 96.7623 89.3354 97.0808C89.3193 97.107 89.3086 97.1364 89.3038 97.1674C89.2019 97.8531 89.2425 98.721 89.2434 100.176C89.2443 101.631 89.2037 102.499 89.3065 103.185C89.3113 103.216 89.322 103.245 89.3381 103.272C89.5375 103.589 89.8966 103.61 90.2466 103.605C90.2531 103.604 90.2595 103.606 90.2655 103.608C90.2715 103.61 90.277 103.614 90.2816 103.619C90.2863 103.623 90.2899 103.628 90.2924 103.634C90.2949 103.64 90.2962 103.647 90.2962 103.653V103.767C90.2962 103.781 90.2907 103.794 90.2809 103.804C90.2711 103.814 90.2578 103.819 90.2439 103.819C89.8981 103.818 89.3922 103.818 88.7264 103.819C88.0606 103.819 87.5547 103.819 87.2089 103.82C87.195 103.82 87.1817 103.815 87.1719 103.805C87.1621 103.795 87.1566 103.782 87.1566 103.768V103.654C87.1566 103.648 87.1579 103.641 87.1604 103.635C87.1629 103.629 87.1665 103.624 87.1712 103.619C87.1758 103.615 87.1813 103.611 87.1873 103.609C87.1933 103.607 87.1997 103.605 87.2062 103.605C87.5562 103.611 87.9153 103.59 88.1147 103.272C88.1308 103.245 88.1415 103.216 88.1463 103.185C88.2482 102.499 88.2076 101.631 88.2067 100.176C88.2067 98.7219 88.2473 97.8531 88.1445 97.1674C88.1397 97.1364 88.129 97.107 88.1129 97.0808C87.9126 96.7623 87.5535 96.7416 87.2035 96.7479C87.197 96.748 87.1906 96.7468 87.1846 96.7444C87.1786 96.742 87.1731 96.7385 87.1685 96.7339C87.1638 96.7294 87.1602 96.724 87.1577 96.718C87.1552 96.712 87.1539 96.7056 87.1539 96.6992V96.5855C87.1539 96.5716 87.1594 96.5583 87.1692 96.5485C87.179 96.5387 87.1923 96.5332 87.2062 96.5332C87.552 96.5344 88.0579 96.5344 88.7237 96.5332Z" fill="black"/>
<path d="M94.551 103.815C94.5383 103.815 94.5262 103.81 94.5172 103.801C94.5082 103.792 94.5032 103.78 94.5032 103.767V103.66C94.5032 103.653 94.5045 103.646 94.5071 103.64C94.5098 103.634 94.5136 103.629 94.5184 103.624C94.5232 103.62 94.5289 103.616 94.5351 103.614C94.5414 103.612 94.548 103.611 94.5546 103.611C94.6984 103.618 94.8433 103.609 94.9895 103.583C95.4812 103.497 95.5506 103.12 95.5515 102.665C95.554 101.047 95.5546 99.401 95.5533 97.7259C95.5524 96.9446 95.3305 96.7317 94.5483 96.7551C94.5424 96.7553 94.5366 96.7542 94.5311 96.752C94.5256 96.7499 94.5207 96.7466 94.5165 96.7425C94.5123 96.7384 94.5089 96.7335 94.5066 96.7281C94.5044 96.7226 94.5032 96.7168 94.5032 96.7109V96.5747C94.5032 96.5625 94.5079 96.5508 94.5164 96.5422C94.5249 96.5335 94.5363 96.5287 94.5483 96.5287H97.7755C97.7879 96.5287 97.7998 96.5336 97.8086 96.5424C97.8174 96.5512 97.8224 96.5632 97.8224 96.5756V96.6974C97.8224 96.7053 97.8208 96.7132 97.8176 96.7205C97.8145 96.7278 97.8098 96.7344 97.804 96.7399C97.7982 96.7453 97.7913 96.7496 97.7838 96.7524C97.7762 96.7552 97.7682 96.7564 97.7601 96.756C97.1653 96.7332 96.8029 96.8775 96.673 97.1891C96.6285 97.2968 96.6059 97.5055 96.6053 97.8152C96.6017 99.5877 96.6011 101.159 96.6035 102.529C96.6041 102.73 96.6222 102.901 96.6576 103.042C96.6677 103.08 96.6883 103.115 96.7172 103.142C96.8387 103.254 96.9259 103.311 96.9788 103.315C97.6489 103.357 98.3011 103.356 98.9357 103.311C99.8216 103.25 100.268 102.596 100.559 101.833C100.565 101.816 100.577 101.803 100.593 101.795C100.609 101.787 100.628 101.786 100.644 101.791L100.735 101.819C100.748 101.823 100.759 101.833 100.766 101.846C100.772 101.858 100.773 101.873 100.769 101.887L100.179 103.763C100.174 103.778 100.165 103.791 100.152 103.8C100.139 103.81 100.124 103.815 100.108 103.815H94.551Z" fill="black"/>
<path d="M105.003 103.815C104.99 103.815 104.978 103.81 104.969 103.801C104.96 103.792 104.955 103.78 104.955 103.767V103.66C104.955 103.653 104.956 103.647 104.959 103.64C104.962 103.634 104.966 103.629 104.97 103.624C104.975 103.62 104.981 103.616 104.987 103.614C104.993 103.612 105 103.611 105.007 103.611C105.15 103.618 105.295 103.609 105.441 103.583C105.933 103.497 106.003 103.12 106.004 102.665C106.007 101.047 106.007 99.4013 106.006 97.7269C106.005 96.9455 105.783 96.7326 105.001 96.7561C104.995 96.7562 104.989 96.7551 104.984 96.753C104.979 96.7508 104.974 96.7476 104.969 96.7435C104.965 96.7393 104.962 96.7344 104.96 96.729C104.957 96.7236 104.956 96.7178 104.956 96.7119V96.5756C104.956 96.5634 104.961 96.5517 104.969 96.5431C104.978 96.5345 104.989 96.5296 105.001 96.5296H108.228C108.241 96.5296 108.253 96.5346 108.262 96.5434C108.27 96.5522 108.275 96.5641 108.275 96.5765V96.6983C108.275 96.7063 108.274 96.7141 108.27 96.7214C108.267 96.7287 108.263 96.7353 108.257 96.7408C108.251 96.7463 108.244 96.7505 108.237 96.7533C108.229 96.7561 108.221 96.7574 108.213 96.757C107.618 96.7341 107.256 96.8785 107.126 97.19C107.081 97.2977 107.059 97.5064 107.058 97.8162C107.054 99.5881 107.053 101.159 107.055 102.529C107.056 102.73 107.074 102.901 107.11 103.042C107.12 103.08 107.14 103.115 107.169 103.142C107.291 103.254 107.378 103.311 107.431 103.315C108.101 103.357 108.753 103.356 109.388 103.311C110.274 103.25 110.72 102.596 111.011 101.833C111.017 101.816 111.03 101.803 111.046 101.796C111.061 101.788 111.08 101.787 111.096 101.792L111.187 101.82C111.2 101.824 111.211 101.834 111.218 101.847C111.224 101.859 111.225 101.874 111.221 101.888L110.631 103.763C110.626 103.778 110.617 103.791 110.604 103.8C110.591 103.81 110.576 103.815 110.56 103.815H105.003Z" fill="black"/>
<path d="M121.505 96.5296C122.841 96.5305 124.175 96.4845 125.487 96.5765C126.071 96.6174 126.599 96.7503 127.073 96.9753C128.685 97.7412 129.137 99.9633 128.588 101.5C127.991 103.168 126.533 103.819 124.856 103.816C124.018 103.815 122.903 103.814 121.511 103.815C121.503 103.815 121.496 103.813 121.489 103.81C121.482 103.807 121.475 103.803 121.47 103.798C121.464 103.792 121.46 103.786 121.457 103.779C121.454 103.772 121.452 103.764 121.452 103.756V103.667C121.452 103.66 121.454 103.652 121.457 103.646C121.46 103.639 121.464 103.633 121.469 103.628C121.474 103.623 121.48 103.619 121.487 103.617C121.493 103.614 121.5 103.613 121.508 103.614C121.603 103.617 121.735 103.609 121.902 103.59C122.428 103.532 122.5 103.127 122.502 102.642C122.506 101.557 122.507 99.9179 122.504 97.725C122.504 96.9265 122.292 96.7479 121.503 96.7533C121.49 96.7533 121.478 96.7482 121.469 96.739C121.459 96.7299 121.454 96.7175 121.454 96.7046V96.5801C121.454 96.5735 121.456 96.5669 121.458 96.5608C121.461 96.5546 121.464 96.5491 121.469 96.5444C121.474 96.5397 121.479 96.536 121.485 96.5334C121.492 96.5309 121.498 96.5296 121.505 96.5296ZM123.55 100.193C123.55 102.097 123.553 103.107 123.56 103.222C123.561 103.236 123.566 103.249 123.574 103.259C123.583 103.269 123.595 103.277 123.608 103.28C124.081 103.398 124.452 103.449 124.722 103.433C125.964 103.36 126.815 102.79 127.275 101.723C127.469 101.273 127.566 100.764 127.566 100.194C127.566 99.6247 127.469 99.115 127.275 98.6651C126.816 97.5975 125.965 97.0273 124.723 96.9545C124.453 96.9389 124.081 96.9897 123.609 97.107C123.596 97.1101 123.584 97.1174 123.575 97.1278C123.567 97.1383 123.562 97.1512 123.561 97.1647C123.554 97.2802 123.55 98.2898 123.55 100.193Z" fill="black"/>
<path d="M139.428 102.038L138.791 103.791C138.788 103.798 138.784 103.804 138.778 103.808C138.772 103.812 138.765 103.814 138.757 103.814H133.207C133.199 103.814 133.191 103.811 133.185 103.805C133.18 103.8 133.176 103.792 133.176 103.784L133.169 103.644C133.169 103.641 133.169 103.638 133.171 103.634C133.172 103.631 133.173 103.628 133.176 103.626C133.178 103.623 133.181 103.621 133.184 103.62C133.187 103.618 133.19 103.617 133.194 103.617C133.915 103.605 134.207 103.449 134.209 102.776C134.211 101.961 134.212 100.255 134.212 97.6574C134.212 97.5768 134.202 97.4463 134.181 97.2658C134.119 96.7471 133.628 96.7362 133.221 96.7543C133.215 96.7545 133.209 96.7536 133.203 96.7514C133.198 96.7493 133.193 96.7461 133.188 96.742C133.184 96.7379 133.181 96.7329 133.178 96.7274C133.176 96.7219 133.175 96.716 133.175 96.7101V96.5756C133.175 96.5634 133.18 96.5517 133.188 96.5431C133.197 96.5345 133.208 96.5296 133.221 96.5296H138.74C138.756 96.5296 138.771 96.5356 138.782 96.5464C138.793 96.5571 138.8 96.5718 138.801 96.5874L138.877 98.1112C138.878 98.1172 138.877 98.1233 138.875 98.1289C138.873 98.1346 138.87 98.1398 138.866 98.1442C138.861 98.1486 138.856 98.1521 138.851 98.1545C138.845 98.1569 138.839 98.1581 138.833 98.1581H138.694C138.68 98.1581 138.666 98.153 138.656 98.1438C138.645 98.1345 138.637 98.1217 138.635 98.1076C138.531 97.5148 138.337 96.9798 137.653 96.969C136.57 96.9522 135.783 96.951 135.293 96.9654C135.286 96.9656 135.278 96.9688 135.273 96.9742C135.268 96.9796 135.265 96.9868 135.265 96.9943V99.7721C135.265 99.7781 135.267 99.7839 135.272 99.7881C135.276 99.7923 135.282 99.7947 135.288 99.7947C136.051 99.8043 136.642 99.804 137.06 99.7938C137.709 99.7775 137.957 99.4031 137.976 98.7978C137.977 98.7825 137.983 98.7681 137.994 98.7575C138.004 98.7469 138.019 98.7409 138.034 98.7409H138.16C138.172 98.7409 138.183 98.7456 138.191 98.7539C138.199 98.7622 138.204 98.7734 138.204 98.7851V101.247C138.204 101.259 138.199 101.27 138.191 101.278C138.183 101.286 138.172 101.291 138.16 101.291H138.026C138.011 101.291 137.997 101.285 137.987 101.276C137.976 101.266 137.969 101.253 137.967 101.238C137.9 100.726 137.826 100.338 137.281 100.255C137.081 100.224 136.946 100.209 136.878 100.209C136.123 100.205 135.596 100.204 135.298 100.207C135.288 100.207 135.28 100.211 135.273 100.218C135.267 100.224 135.263 100.233 135.263 100.242C135.265 101.046 135.264 101.923 135.261 102.875C135.261 103.224 135.423 103.401 135.749 103.404C136.627 103.415 137.139 103.415 137.285 103.403C137.572 103.382 137.798 103.386 138.015 103.303C138.538 103.105 138.917 102.512 139.157 102.029C139.163 102.018 139.172 102.008 139.184 102.001C139.195 101.994 139.208 101.991 139.221 101.991H139.394C139.399 101.991 139.405 101.992 139.41 101.995C139.415 101.997 139.42 102.001 139.423 102.006C139.426 102.01 139.429 102.016 139.429 102.021C139.43 102.027 139.43 102.033 139.428 102.038Z" fill="black"/>
<path d="M146.67 103.815H143.624C143.611 103.815 143.599 103.81 143.589 103.801C143.58 103.792 143.575 103.78 143.575 103.767V103.664C143.575 103.657 143.577 103.65 143.579 103.643C143.582 103.637 143.586 103.631 143.592 103.626C143.597 103.621 143.603 103.617 143.61 103.614C143.617 103.612 143.624 103.611 143.631 103.611C143.925 103.626 144.29 103.597 144.486 103.331C144.565 103.225 144.606 103.048 144.609 102.798C144.618 102.009 144.62 100.281 144.614 97.6132C144.613 97.5236 144.601 97.3939 144.577 97.2243C144.518 96.8192 143.97 96.7182 143.635 96.7606C143.627 96.7616 143.62 96.7611 143.612 96.7589C143.605 96.7567 143.599 96.753 143.593 96.7481C143.587 96.7431 143.583 96.737 143.58 96.7301C143.577 96.7232 143.575 96.7158 143.575 96.7083V96.5838C143.575 96.5694 143.581 96.5556 143.591 96.5455C143.601 96.5353 143.615 96.5296 143.629 96.5296H148.955C148.968 96.5296 148.98 96.5346 148.99 96.5435C148.999 96.5524 149.005 96.5645 149.005 96.5775L149.079 98.058C149.081 98.0861 149.072 98.1138 149.055 98.1358C149.037 98.1577 149.012 98.1723 148.984 98.1769C148.956 98.1815 148.927 98.1757 148.903 98.1605C148.879 98.1454 148.862 98.1221 148.854 98.0949C148.676 97.4769 148.373 97.0015 147.654 96.9726C147.098 96.951 146.446 96.9485 145.696 96.9654C145.691 96.9654 145.685 96.9677 145.682 96.9717C145.678 96.9758 145.675 96.9813 145.675 96.987V99.7415C145.675 99.7461 145.676 99.7507 145.678 99.7549C145.68 99.7592 145.682 99.7631 145.686 99.7663C145.689 99.7696 145.693 99.7722 145.697 99.774C145.701 99.7757 145.706 99.7766 145.711 99.7766C146.596 99.7796 147.08 99.7781 147.162 99.7721C147.723 99.7324 147.86 99.3003 147.909 98.8311C147.911 98.8181 147.917 98.8062 147.927 98.7975C147.937 98.7889 147.949 98.7841 147.963 98.7842H148.091C148.102 98.7842 148.113 98.7888 148.121 98.7969C148.129 98.805 148.134 98.816 148.134 98.8275V101.222C148.134 101.233 148.129 101.244 148.121 101.253C148.113 101.261 148.102 101.265 148.091 101.265H147.954C147.947 101.265 147.94 101.264 147.934 101.261C147.928 101.259 147.922 101.255 147.918 101.25C147.913 101.245 147.91 101.24 147.907 101.233C147.905 101.227 147.904 101.221 147.904 101.214C147.926 100.702 147.709 100.285 147.155 100.26C146.928 100.251 146.446 100.248 145.711 100.253C145.701 100.253 145.691 100.257 145.684 100.264C145.677 100.272 145.673 100.282 145.673 100.292C145.68 101.184 145.679 102.035 145.671 102.847C145.667 103.281 145.879 103.529 146.307 103.589C146.467 103.612 146.587 103.621 146.668 103.615C146.674 103.614 146.68 103.615 146.686 103.617C146.691 103.619 146.696 103.622 146.701 103.626C146.705 103.63 146.709 103.635 146.711 103.64C146.714 103.646 146.715 103.652 146.715 103.658V103.77C146.715 103.782 146.71 103.793 146.702 103.802C146.693 103.81 146.682 103.815 146.67 103.815Z" fill="black"/>
<path d="M159.528 101.989H159.7C159.706 101.989 159.712 101.99 159.717 101.993C159.722 101.995 159.726 101.999 159.73 102.004C159.733 102.009 159.735 102.014 159.736 102.02C159.737 102.025 159.736 102.031 159.734 102.037L159.098 103.79C159.096 103.796 159.091 103.802 159.085 103.806C159.079 103.81 159.072 103.812 159.065 103.812L153.515 103.815C153.507 103.815 153.499 103.812 153.493 103.806C153.487 103.801 153.483 103.793 153.483 103.785L153.477 103.645C153.476 103.642 153.477 103.638 153.478 103.635C153.479 103.632 153.481 103.629 153.483 103.627C153.485 103.624 153.488 103.622 153.491 103.62C153.494 103.619 153.498 103.618 153.501 103.618C154.223 103.606 154.514 103.449 154.516 102.776C154.518 101.961 154.518 100.255 154.517 97.6582C154.517 97.5776 154.506 97.4471 154.485 97.2667C154.424 96.7479 153.933 96.7371 153.525 96.756C153.519 96.7563 153.514 96.7553 153.508 96.7532C153.502 96.7511 153.497 96.7479 153.493 96.7438C153.489 96.7396 153.485 96.7347 153.483 96.7292C153.481 96.7237 153.479 96.7178 153.479 96.7118V96.5774C153.479 96.5652 153.484 96.5535 153.493 96.5449C153.502 96.5362 153.513 96.5314 153.525 96.5314L159.044 96.5287C159.06 96.5287 159.075 96.5347 159.086 96.5454C159.097 96.5562 159.104 96.5709 159.105 96.5864L159.182 98.1102C159.183 98.1163 159.182 98.1223 159.18 98.128C159.178 98.1337 159.174 98.1389 159.17 98.1433C159.166 98.1477 159.161 98.1512 159.156 98.1535C159.15 98.1559 159.144 98.1572 159.138 98.1572H158.999C158.985 98.1571 158.971 98.1521 158.96 98.1428C158.949 98.1336 158.942 98.1208 158.94 98.1066C158.836 97.5139 158.642 96.9789 157.958 96.9681C156.875 96.9518 156.088 96.9512 155.598 96.9663C155.59 96.9665 155.583 96.9696 155.578 96.975C155.573 96.9804 155.57 96.9876 155.57 96.9951L155.571 99.7721C155.571 99.7781 155.573 99.7838 155.577 99.788C155.582 99.7923 155.587 99.7946 155.593 99.7946C156.357 99.8043 156.947 99.8037 157.365 99.7928C158.015 99.7766 158.263 99.4022 158.281 98.7968C158.281 98.7816 158.288 98.7671 158.298 98.7565C158.309 98.7459 158.324 98.74 158.339 98.74H158.465C158.476 98.74 158.487 98.7446 158.496 98.7529C158.504 98.7612 158.508 98.7725 158.508 98.7842L158.51 101.246C158.51 101.258 158.506 101.269 158.497 101.277C158.489 101.285 158.478 101.29 158.467 101.29H158.332C158.318 101.29 158.304 101.284 158.293 101.275C158.282 101.265 158.275 101.252 158.274 101.237C158.206 100.725 158.132 100.337 157.587 100.254C157.386 100.223 157.252 100.208 157.184 100.208C156.428 100.204 155.902 100.204 155.603 100.207C155.594 100.207 155.585 100.211 155.579 100.218C155.572 100.224 155.569 100.233 155.569 100.242C155.571 101.046 155.571 101.923 155.569 102.875C155.568 103.224 155.731 103.401 156.056 103.404C156.934 103.415 157.446 103.414 157.593 103.403C157.879 103.381 158.105 103.385 158.322 103.302C158.846 103.103 159.224 102.51 159.464 102.028C159.47 102.016 159.479 102.006 159.49 101.999C159.501 101.992 159.514 101.989 159.528 101.989Z" fill="black"/>
<path d="M165.51 98.1491C165.508 98.1466 165.505 98.1448 165.502 98.144C165.498 98.1432 165.495 98.1434 165.492 98.1445C165.488 98.1457 165.486 98.1478 165.484 98.1505C165.482 98.1533 165.481 98.1565 165.48 98.1599C165.477 100.247 165.478 101.792 165.483 102.795C165.484 102.936 165.517 103.107 165.583 103.309C165.593 103.338 165.609 103.364 165.631 103.385C165.851 103.601 166.184 103.621 166.475 103.612C166.48 103.612 166.485 103.613 166.49 103.614C166.495 103.616 166.5 103.619 166.504 103.623C166.508 103.627 166.511 103.631 166.513 103.637C166.515 103.642 166.516 103.647 166.516 103.652V103.772C166.516 103.783 166.512 103.794 166.503 103.802C166.495 103.81 166.484 103.815 166.473 103.815H164.011C163.999 103.815 163.987 103.81 163.978 103.802C163.97 103.793 163.965 103.782 163.965 103.77V103.661C163.965 103.654 163.966 103.648 163.969 103.642C163.971 103.636 163.975 103.631 163.98 103.626C163.984 103.622 163.99 103.618 163.996 103.616C164.002 103.614 164.009 103.613 164.015 103.613C164.549 103.626 164.978 103.502 164.98 102.867C164.983 101.559 164.984 99.7935 164.981 97.5699C164.981 97.5411 164.973 97.5131 164.957 97.4896C164.624 97.0006 164.179 96.7546 163.621 96.7516C163.613 96.7516 163.604 96.7499 163.597 96.7468C163.589 96.7436 163.582 96.7389 163.576 96.7331C163.57 96.7272 163.566 96.7202 163.563 96.7126C163.559 96.7049 163.558 96.6967 163.558 96.6884V96.5847C163.558 96.5701 163.564 96.5561 163.574 96.5458C163.584 96.5354 163.598 96.5296 163.613 96.5296H165.501C165.517 96.5297 165.532 96.5332 165.546 96.5399C165.56 96.5466 165.572 96.5563 165.582 96.5684L169.929 101.9C169.932 101.903 169.935 101.905 169.94 101.907C169.944 101.908 169.948 101.908 169.952 101.906C169.956 101.905 169.96 101.902 169.962 101.899C169.965 101.895 169.966 101.891 169.966 101.887C169.968 99.9189 169.967 98.4489 169.964 97.4769C169.963 96.821 169.533 96.7398 168.999 96.757C168.993 96.7571 168.987 96.756 168.981 96.7538C168.976 96.7516 168.971 96.7483 168.966 96.7441C168.962 96.7399 168.959 96.7349 168.956 96.7293C168.954 96.7238 168.953 96.7179 168.953 96.7119V96.5738C168.953 96.5621 168.958 96.5509 168.966 96.5426C168.974 96.5343 168.985 96.5296 168.997 96.5296H171.458C171.47 96.5296 171.481 96.5342 171.489 96.5423C171.497 96.5504 171.502 96.5615 171.502 96.5729V96.7101C171.502 96.7162 171.5 96.7222 171.498 96.7279C171.496 96.7335 171.492 96.7387 171.488 96.7429C171.484 96.7472 171.479 96.7506 171.473 96.7528C171.468 96.7551 171.462 96.7562 171.456 96.7561C171.083 96.748 170.703 96.7525 170.544 97.1242C170.481 97.2685 170.463 97.5599 170.463 97.7214C170.464 100.223 170.464 102.286 170.463 103.91C170.463 103.919 170.46 103.929 170.454 103.936C170.448 103.944 170.439 103.949 170.43 103.951C170.258 103.984 170.208 103.887 170.092 103.745C168.081 101.288 166.554 99.4224 165.51 98.1491Z" fill="black"/>
<path d="M175.552 96.7038V96.5793C175.552 96.5659 175.558 96.553 175.567 96.5435C175.577 96.5341 175.59 96.5287 175.603 96.5287C176.939 96.5296 178.274 96.4827 179.586 96.5748C180.17 96.6157 180.699 96.7486 181.173 96.9735C182.785 97.7395 183.238 99.9616 182.689 101.499C182.092 103.167 180.634 103.819 178.956 103.816C178.118 103.815 177.003 103.815 175.61 103.816C175.595 103.816 175.58 103.81 175.569 103.799C175.558 103.788 175.552 103.773 175.552 103.757V103.668C175.552 103.661 175.553 103.653 175.556 103.647C175.559 103.64 175.563 103.634 175.568 103.629C175.573 103.624 175.579 103.62 175.586 103.618C175.592 103.615 175.599 103.614 175.607 103.615C175.702 103.618 175.834 103.61 176.002 103.591C176.528 103.533 176.6 103.128 176.602 102.642C176.605 101.557 176.606 99.9177 176.603 97.7242C176.602 96.9257 176.391 96.7471 175.601 96.7525C175.588 96.7525 175.576 96.7474 175.567 96.7382C175.558 96.7291 175.552 96.7167 175.552 96.7038ZM177.658 100.193C177.658 102.094 177.661 103.102 177.668 103.219C177.669 103.232 177.674 103.245 177.683 103.255C177.691 103.265 177.703 103.272 177.716 103.275C178.188 103.393 178.559 103.444 178.829 103.429C180.07 103.356 180.92 102.786 181.38 101.72C181.573 101.271 181.67 100.762 181.67 100.193C181.67 99.6236 181.574 99.1144 181.381 98.6652C180.921 97.5988 180.071 97.0289 178.83 96.9555C178.56 96.9398 178.189 96.991 177.717 97.1089C177.704 97.1119 177.692 97.1191 177.684 97.1294C177.675 97.1396 177.67 97.1523 177.669 97.1657C177.662 97.2818 177.658 98.2907 177.658 100.193Z" fill="black"/>
<path d="M193.324 101.99H193.496C193.502 101.99 193.508 101.991 193.513 101.994C193.518 101.996 193.522 102 193.526 102.005C193.529 102.009 193.531 102.015 193.532 102.021C193.533 102.026 193.532 102.032 193.53 102.038L192.894 103.792C192.892 103.799 192.888 103.805 192.882 103.809C192.876 103.813 192.868 103.815 192.861 103.815L187.307 103.819C187.299 103.819 187.291 103.816 187.285 103.811C187.28 103.805 187.276 103.798 187.276 103.79L187.269 103.65C187.269 103.646 187.269 103.643 187.271 103.64C187.272 103.637 187.273 103.634 187.276 103.631C187.278 103.629 187.281 103.627 187.284 103.625C187.287 103.624 187.29 103.623 187.294 103.623C188.015 103.609 188.307 103.454 188.309 102.779C188.31 101.964 188.31 100.257 188.308 97.6583C188.308 97.5771 188.297 97.4463 188.276 97.2658C188.215 96.7471 187.723 96.7362 187.315 96.7552C187.309 96.7554 187.303 96.7545 187.298 96.7524C187.292 96.7503 187.287 96.747 187.283 96.7429C187.279 96.7388 187.275 96.7338 187.273 96.7283C187.27 96.7228 187.269 96.7169 187.269 96.711V96.5766C187.269 96.5644 187.274 96.5527 187.283 96.544C187.291 96.5354 187.303 96.5305 187.315 96.5305L192.839 96.526C192.854 96.526 192.869 96.532 192.88 96.5428C192.892 96.5535 192.898 96.5682 192.899 96.5838L192.977 98.1085C192.977 98.1145 192.976 98.1206 192.974 98.1262C192.972 98.1319 192.969 98.1371 192.965 98.1415C192.96 98.1459 192.955 98.1494 192.95 98.1518C192.944 98.1542 192.938 98.1554 192.932 98.1554H192.793C192.779 98.1554 192.765 98.1503 192.755 98.1411C192.744 98.1318 192.736 98.119 192.734 98.1049C192.629 97.5121 192.435 96.9762 191.75 96.9663C190.667 96.9501 189.88 96.9495 189.389 96.9645C189.382 96.9647 189.375 96.9679 189.37 96.9733C189.364 96.9787 189.361 96.9859 189.361 96.9934L189.363 99.773C189.363 99.779 189.366 99.7848 189.37 99.789C189.374 99.7932 189.38 99.7956 189.386 99.7956C190.15 99.8046 190.741 99.804 191.159 99.7938C191.809 99.7767 192.057 99.4022 192.075 98.796C192.076 98.7807 192.082 98.7663 192.093 98.7557C192.104 98.7451 192.118 98.7391 192.133 98.7391H192.259C192.271 98.7391 192.282 98.7438 192.29 98.7521C192.298 98.7604 192.303 98.7716 192.303 98.7833L192.304 101.247C192.304 101.259 192.3 101.27 192.292 101.278C192.284 101.286 192.273 101.291 192.261 101.291H192.127C192.112 101.291 192.098 101.285 192.088 101.276C192.077 101.266 192.07 101.253 192.068 101.238C192.001 100.726 191.926 100.337 191.381 100.255C191.181 100.224 191.046 100.209 190.978 100.209C190.222 100.205 189.695 100.205 189.396 100.208C189.387 100.208 189.378 100.212 189.371 100.219C189.365 100.225 189.361 100.234 189.361 100.243C189.364 101.047 189.364 101.925 189.362 102.878C189.362 103.228 189.524 103.404 189.85 103.407C190.729 103.417 191.241 103.417 191.388 103.405C191.675 103.384 191.9 103.388 192.118 103.304C192.641 103.106 193.02 102.512 193.26 102.029C193.266 102.017 193.275 102.007 193.286 102C193.298 101.993 193.311 101.99 193.324 101.99Z" fill="black"/>
<path d="M200.786 103.815H197.734C197.721 103.815 197.708 103.81 197.699 103.801C197.69 103.791 197.685 103.779 197.685 103.766V103.665C197.685 103.658 197.686 103.651 197.689 103.644C197.692 103.638 197.696 103.632 197.701 103.627C197.706 103.622 197.712 103.618 197.719 103.616C197.725 103.613 197.732 103.612 197.739 103.612C198.074 103.621 198.457 103.588 198.634 103.283C198.694 103.181 198.724 102.971 198.724 102.655C198.729 99.7787 198.726 98.0284 198.715 97.4047C198.705 96.7957 198.216 96.747 197.731 96.7524C197.719 96.7524 197.707 96.7476 197.698 96.7389C197.689 96.7303 197.684 96.7186 197.684 96.7064V96.5783C197.684 96.5658 197.689 96.5539 197.698 96.5451C197.707 96.5363 197.719 96.5314 197.731 96.5314C199.338 96.526 200.388 96.5281 200.88 96.5377C201.09 96.5419 201.365 96.5684 201.703 96.6171C202.563 96.7398 203.299 97.3551 203.38 98.25C203.481 99.3904 202.678 100.016 201.648 100.277C201.644 100.278 201.64 100.28 201.638 100.283C201.635 100.285 201.633 100.288 201.631 100.292C201.63 100.295 201.63 100.299 201.63 100.303C201.63 100.307 201.632 100.31 201.634 100.313C202.333 101.3 202.922 102.112 203.4 102.748C203.785 103.261 204.281 103.542 204.888 103.591C204.905 103.592 204.921 103.6 204.933 103.612C204.944 103.625 204.95 103.641 204.95 103.658V103.762C204.95 103.777 204.945 103.79 204.935 103.8C204.925 103.81 204.911 103.816 204.897 103.816H203.031C203.013 103.816 202.996 103.812 202.98 103.803C202.965 103.795 202.951 103.784 202.941 103.77L200.558 100.476C200.548 100.462 200.535 100.451 200.519 100.443C200.504 100.436 200.488 100.432 200.471 100.432H199.843C199.829 100.432 199.815 100.437 199.805 100.447C199.795 100.458 199.789 100.471 199.789 100.486C199.785 101.763 199.786 102.549 199.791 102.844C199.802 103.502 200.208 103.641 200.783 103.611C200.788 103.611 200.793 103.611 200.798 103.613C200.803 103.615 200.807 103.618 200.811 103.621C200.814 103.625 200.817 103.629 200.819 103.633C200.821 103.638 200.822 103.643 200.822 103.648V103.779C200.822 103.788 200.818 103.797 200.811 103.804C200.805 103.811 200.795 103.815 200.786 103.815ZM199.808 100.064C200.699 100.125 201.844 99.8984 202.104 98.8726C202.179 98.5784 202.181 98.3126 202.11 98.075C201.795 97.0059 200.854 96.8047 199.831 97.0573C199.818 97.0608 199.807 97.0685 199.798 97.0792C199.79 97.09 199.785 97.1033 199.785 97.1169V100.04C199.785 100.046 199.788 100.052 199.792 100.057C199.796 100.061 199.802 100.064 199.808 100.064Z" fill="black"/>
<path d="M98.2905 114.187C98.2907 114.185 98.2913 114.184 98.2921 114.183C98.2929 114.182 98.294 114.181 98.2953 114.181C98.2966 114.18 98.2979 114.18 98.2993 114.18C98.3007 114.18 98.302 114.181 98.3031 114.181C98.7957 114.556 99.3163 114.702 99.8648 114.62C100.181 114.572 100.467 114.344 100.427 114.001C100.404 113.806 100.274 113.678 100.038 113.617C100.012 113.61 99.6943 113.543 99.0862 113.417C98.3392 113.262 98.0162 112.414 98.599 111.866C99.1313 111.366 100.129 111.499 100.774 111.766C100.78 111.769 100.785 111.773 100.788 111.778C100.791 111.783 100.793 111.789 100.793 111.795L100.783 112.337C100.783 112.339 100.783 112.34 100.782 112.342C100.781 112.343 100.78 112.344 100.779 112.345C100.777 112.346 100.776 112.346 100.774 112.346C100.772 112.345 100.771 112.345 100.77 112.344C100.328 112.024 99.8555 111.898 99.3515 111.966C98.7317 112.051 98.5539 112.809 99.2486 112.96C99.7457 113.068 100.666 113.09 100.877 113.701C100.942 113.891 100.942 114.085 100.878 114.282C100.546 115.305 99.0961 115.134 98.3049 114.795C98.2977 114.792 98.2916 114.786 98.2874 114.78C98.2832 114.774 98.2812 114.766 98.2815 114.759L98.2905 114.187Z" fill="black"/>
<path d="M130.068 113.298C130.069 113.917 130.331 114.5 130.989 114.627C131.512 114.727 131.925 114.521 132.355 114.21C132.36 114.206 132.367 114.203 132.374 114.203C132.381 114.202 132.388 114.203 132.394 114.207C132.401 114.21 132.406 114.215 132.41 114.221C132.413 114.227 132.415 114.234 132.415 114.241V114.679C132.415 114.699 132.41 114.719 132.399 114.737C132.388 114.754 132.373 114.768 132.355 114.777C131.035 115.444 129.572 114.949 129.57 113.299C129.568 111.649 131.029 111.149 132.35 111.812C132.369 111.821 132.384 111.835 132.395 111.852C132.406 111.87 132.412 111.89 132.412 111.91L132.412 112.349C132.413 112.356 132.411 112.363 132.407 112.369C132.403 112.375 132.398 112.38 132.392 112.383C132.385 112.386 132.378 112.387 132.371 112.387C132.364 112.386 132.358 112.384 132.352 112.379C131.922 112.07 131.508 111.865 130.985 111.967C130.328 112.095 130.067 112.679 130.068 113.298Z" fill="black"/>
<path d="M143.993 114.188C143.993 114.187 143.994 114.186 143.994 114.185C143.995 114.184 143.996 114.183 143.998 114.182C143.999 114.182 144 114.181 144.002 114.182C144.003 114.182 144.004 114.182 144.005 114.183C144.499 114.556 145.019 114.702 145.567 114.619C145.884 114.57 146.169 114.342 146.127 113.999C146.105 113.805 145.975 113.677 145.739 113.615C145.712 113.609 145.395 113.544 144.787 113.418C144.041 113.264 143.716 112.417 144.298 111.87C144.828 111.369 145.826 111.5 146.471 111.766C146.477 111.768 146.482 111.772 146.485 111.778C146.488 111.783 146.49 111.789 146.49 111.795L146.481 112.336C146.481 112.338 146.481 112.339 146.48 112.341C146.479 112.342 146.478 112.343 146.476 112.344C146.475 112.344 146.473 112.345 146.472 112.344C146.47 112.344 146.469 112.343 146.468 112.342C146.026 112.024 145.553 111.899 145.049 111.968C144.43 112.054 144.254 112.812 144.948 112.961C145.445 113.068 146.365 113.089 146.577 113.699C146.642 113.889 146.643 114.082 146.579 114.279C146.249 115.303 144.8 115.134 144.009 114.796C144.002 114.793 143.996 114.788 143.992 114.782C143.987 114.775 143.985 114.768 143.986 114.76L143.993 114.188Z" fill="black"/>
<path d="M150.632 113.622C150.632 114 150.482 114.364 150.214 114.632C149.946 114.899 149.583 115.05 149.204 115.05H148.942C148.564 115.05 148.2 114.899 147.932 114.632C147.665 114.364 147.514 114 147.514 113.622V112.97C147.514 112.592 147.665 112.228 147.932 111.96C148.2 111.693 148.564 111.542 148.942 111.542H149.204C149.583 111.542 149.946 111.693 150.214 111.96C150.482 112.228 150.632 112.592 150.632 112.97V113.622ZM147.979 113.295C147.979 113.968 148.285 114.663 149.072 114.663C149.859 114.663 150.166 113.968 150.166 113.295C150.166 112.622 149.859 111.927 149.072 111.927C148.285 111.927 147.979 112.622 147.979 113.295Z" fill="black"/>
<path d="M157.693 113.618C157.694 113.806 157.657 113.992 157.585 114.165C157.514 114.339 157.409 114.496 157.276 114.629C157.144 114.762 156.987 114.868 156.813 114.94C156.64 115.012 156.454 115.049 156.267 115.05L156.007 115.05C155.628 115.051 155.264 114.901 154.996 114.633C154.727 114.366 154.576 114.003 154.575 113.624L154.574 112.974C154.574 112.786 154.61 112.6 154.682 112.427C154.753 112.253 154.858 112.096 154.991 111.963C155.123 111.83 155.281 111.724 155.454 111.652C155.627 111.58 155.813 111.543 156.001 111.542L156.261 111.542C156.64 111.541 157.003 111.691 157.272 111.959C157.54 112.226 157.691 112.589 157.692 112.968L157.693 113.618ZM155.037 113.294C155.039 113.967 155.348 114.661 156.135 114.658C156.922 114.656 157.226 113.96 157.224 113.287C157.222 112.614 156.913 111.92 156.126 111.923C155.339 111.926 155.035 112.621 155.037 113.294Z" fill="black"/>
<path d="M105.143 111.596C105.231 111.596 105.318 111.599 105.403 111.604C105.419 111.605 105.434 111.611 105.447 111.62C105.46 111.63 105.47 111.643 105.476 111.658L106.668 114.944C106.671 114.951 106.672 114.958 106.671 114.966C106.67 114.973 106.667 114.98 106.663 114.986C106.659 114.991 106.653 114.996 106.647 115C106.64 115.003 106.633 115.005 106.626 115.005H106.259C106.241 115.005 106.223 114.999 106.208 114.989C106.193 114.978 106.182 114.963 106.176 114.946L105.875 114.118C105.869 114.1 105.857 114.084 105.841 114.073C105.825 114.062 105.806 114.056 105.787 114.057C105.735 114.057 105.519 114.056 105.139 114.056C104.76 114.055 104.544 114.055 104.491 114.055C104.472 114.055 104.453 114.06 104.437 114.071C104.422 114.082 104.41 114.098 104.403 114.116L104.101 114.943C104.094 114.961 104.083 114.975 104.068 114.986C104.053 114.996 104.036 115.002 104.018 115.002L103.65 115.001C103.643 115.001 103.636 114.999 103.63 114.996C103.623 114.993 103.618 114.988 103.614 114.982C103.609 114.976 103.607 114.969 103.606 114.962C103.605 114.955 103.606 114.947 103.608 114.941L104.809 111.657C104.815 111.642 104.824 111.629 104.837 111.619C104.85 111.61 104.865 111.604 104.881 111.603C104.966 111.598 105.054 111.596 105.143 111.596ZM104.569 113.611C104.567 113.615 104.567 113.619 104.568 113.624C104.568 113.628 104.57 113.632 104.573 113.636C104.575 113.64 104.578 113.643 104.582 113.645C104.586 113.647 104.591 113.648 104.595 113.648H105.663C105.668 113.648 105.672 113.647 105.676 113.645C105.68 113.643 105.683 113.64 105.686 113.636C105.688 113.632 105.69 113.628 105.691 113.624C105.691 113.619 105.691 113.615 105.689 113.611L105.155 112.116C105.153 112.111 105.15 112.106 105.145 112.103C105.14 112.1 105.135 112.098 105.129 112.098C105.123 112.098 105.118 112.1 105.113 112.103C105.109 112.106 105.105 112.111 105.103 112.116L104.569 113.611Z" fill="black"/>
<path d="M110.061 114.964C110.061 114.974 110.057 114.984 110.05 114.992C110.042 114.999 110.032 115.003 110.022 115.003H109.628C109.618 115.003 109.607 114.999 109.6 114.991C109.592 114.983 109.588 114.973 109.588 114.962V111.624C109.588 111.617 109.591 111.611 109.595 111.606C109.6 111.601 109.607 111.598 109.614 111.598C110.006 111.594 110.371 111.595 110.711 111.601C111.233 111.611 111.752 111.877 111.815 112.449C111.883 113.055 111.559 113.577 110.981 113.689C110.705 113.743 110.417 113.758 110.116 113.733C110.109 113.732 110.102 113.733 110.096 113.735C110.089 113.737 110.083 113.741 110.078 113.746C110.073 113.751 110.069 113.757 110.066 113.763C110.063 113.77 110.061 113.777 110.061 113.784V114.964ZM110.056 112.04L110.067 113.291C110.067 113.301 110.071 113.311 110.078 113.319C110.086 113.326 110.096 113.33 110.107 113.33L110.617 113.326C110.713 113.325 110.808 113.307 110.896 113.273C110.984 113.24 111.064 113.191 111.131 113.129C111.198 113.067 111.251 112.995 111.287 112.915C111.323 112.834 111.342 112.749 111.341 112.663V112.646C111.339 112.472 111.261 112.306 111.123 112.184C110.986 112.062 110.8 111.994 110.606 111.996L110.096 112C110.091 112 110.085 112.001 110.081 112.003C110.076 112.005 110.071 112.008 110.068 112.012C110.064 112.016 110.061 112.02 110.059 112.025C110.057 112.03 110.056 112.035 110.056 112.04Z" fill="black"/>
<path d="M114.678 111.592C114.898 111.593 115.106 111.593 115.302 111.59C115.31 111.59 115.317 111.591 115.324 111.594C115.33 111.597 115.336 111.601 115.342 111.606C115.347 111.611 115.351 111.617 115.353 111.624C115.356 111.63 115.357 111.638 115.357 111.645L115.353 111.921C115.353 111.927 115.351 111.933 115.349 111.939C115.346 111.945 115.343 111.95 115.338 111.954C115.334 111.958 115.329 111.962 115.323 111.964C115.317 111.966 115.311 111.967 115.305 111.967L114.987 111.962C114.978 111.961 114.969 111.963 114.96 111.967C114.951 111.97 114.943 111.975 114.936 111.982C114.93 111.988 114.924 111.996 114.921 112.005C114.917 112.013 114.915 112.023 114.915 112.032C114.915 112.092 114.914 112.513 114.913 113.295C114.913 114.078 114.913 114.499 114.913 114.559C114.913 114.568 114.915 114.577 114.919 114.586C114.922 114.594 114.928 114.602 114.934 114.609C114.941 114.615 114.949 114.62 114.957 114.624C114.966 114.628 114.975 114.629 114.985 114.629L115.302 114.624C115.308 114.624 115.315 114.625 115.32 114.627C115.326 114.629 115.331 114.633 115.336 114.637C115.34 114.641 115.344 114.646 115.346 114.652C115.349 114.658 115.35 114.664 115.35 114.67L115.355 114.946C115.355 114.953 115.353 114.961 115.351 114.967C115.348 114.974 115.344 114.98 115.339 114.985C115.334 114.99 115.328 114.994 115.321 114.997C115.314 115 115.307 115.001 115.3 115.001C115.104 114.998 114.895 114.997 114.675 114.998C114.455 114.997 114.247 114.998 114.051 115C114.044 115 114.036 114.999 114.03 114.996C114.023 114.994 114.017 114.989 114.012 114.984C114.007 114.979 114.003 114.973 114 114.966C113.997 114.96 113.996 114.952 113.996 114.945L114 114.669C114.001 114.663 114.002 114.657 114.004 114.651C114.007 114.646 114.01 114.64 114.015 114.636C114.019 114.632 114.025 114.629 114.03 114.626C114.036 114.624 114.042 114.623 114.048 114.623L114.366 114.628C114.375 114.629 114.385 114.627 114.393 114.623C114.402 114.62 114.41 114.615 114.417 114.608C114.424 114.602 114.429 114.594 114.433 114.585C114.436 114.577 114.438 114.567 114.438 114.558C114.439 114.498 114.439 114.077 114.44 113.295C114.44 112.513 114.44 112.092 114.44 112.031C114.44 112.022 114.438 112.013 114.434 112.004C114.43 111.996 114.425 111.988 114.418 111.982C114.412 111.975 114.404 111.97 114.395 111.967C114.386 111.963 114.377 111.961 114.368 111.962L114.05 111.966C114.044 111.966 114.038 111.965 114.032 111.963C114.026 111.961 114.021 111.957 114.017 111.953C114.012 111.949 114.009 111.944 114.006 111.938C114.004 111.932 114.002 111.926 114.002 111.92L113.999 111.644C113.999 111.637 114 111.63 114.003 111.623C114.005 111.616 114.009 111.61 114.014 111.605C114.02 111.6 114.026 111.596 114.032 111.593C114.039 111.59 114.046 111.589 114.054 111.589C114.249 111.592 114.457 111.593 114.678 111.592Z" fill="black"/>
<path d="M120.526 111.628C120.526 111.62 120.529 111.612 120.535 111.606C120.541 111.6 120.549 111.597 120.557 111.597H121.727C121.945 111.597 122.162 111.638 122.364 111.718C122.566 111.797 122.749 111.914 122.904 112.062C123.058 112.209 123.181 112.384 123.265 112.576C123.348 112.769 123.391 112.975 123.391 113.183V113.409C123.391 113.617 123.348 113.823 123.265 114.016C123.181 114.208 123.058 114.383 122.904 114.53C122.749 114.677 122.566 114.794 122.364 114.874C122.162 114.954 121.945 114.995 121.727 114.995H120.557C120.549 114.995 120.541 114.991 120.535 114.986C120.529 114.98 120.526 114.972 120.526 114.964V111.628ZM120.999 112.04L121.002 114.557C121.002 114.561 121.003 114.565 121.005 114.569C121.006 114.572 121.008 114.575 121.011 114.578C121.014 114.581 121.017 114.583 121.021 114.585C121.024 114.586 121.028 114.587 121.032 114.587L121.66 114.586C121.823 114.586 121.983 114.556 122.133 114.499C122.284 114.441 122.42 114.358 122.534 114.252C122.649 114.146 122.74 114.021 122.802 113.883C122.864 113.745 122.896 113.597 122.895 113.448V113.142C122.895 112.841 122.764 112.552 122.531 112.34C122.299 112.128 121.984 112.009 121.657 112.009L121.029 112.01C121.025 112.01 121.021 112.011 121.017 112.013C121.014 112.014 121.01 112.016 121.008 112.019C121.005 112.022 121.003 112.025 121.001 112.029C121 112.032 120.999 112.036 120.999 112.04Z" fill="black"/>
<path d="M124.947 112.065V112.886C124.947 112.897 124.951 112.907 124.958 112.914C124.966 112.922 124.976 112.926 124.987 112.926H126.67C126.682 112.926 126.694 112.931 126.703 112.94C126.712 112.948 126.717 112.96 126.717 112.972L126.716 113.286C126.716 113.298 126.711 113.31 126.702 113.319C126.693 113.328 126.682 113.333 126.669 113.333H124.978C124.97 113.333 124.962 113.337 124.956 113.343C124.95 113.349 124.947 113.357 124.947 113.365L124.946 114.533C124.946 114.543 124.95 114.553 124.958 114.56C124.965 114.567 124.975 114.571 124.985 114.571L126.67 114.572C126.682 114.572 126.693 114.576 126.702 114.585C126.71 114.593 126.715 114.605 126.715 114.617L126.716 114.954C126.716 114.966 126.711 114.978 126.703 114.987C126.694 114.995 126.682 115 126.67 115H124.507C124.497 115 124.489 114.997 124.482 114.99C124.476 114.984 124.472 114.976 124.472 114.967V111.653C124.472 111.638 124.478 111.623 124.489 111.612C124.5 111.601 124.515 111.595 124.53 111.595L126.665 111.599C126.678 111.599 126.691 111.605 126.7 111.614C126.71 111.624 126.715 111.637 126.715 111.65L126.717 111.98C126.717 111.992 126.712 112.004 126.703 112.012C126.695 112.021 126.683 112.026 126.671 112.026H124.987C124.976 112.026 124.966 112.03 124.958 112.037C124.951 112.045 124.947 112.055 124.947 112.065Z" fill="black"/>
<path d="M136.591 114.488C136.594 114.488 136.598 114.487 136.601 114.486C136.604 114.485 136.607 114.483 136.609 114.48C136.611 114.478 136.613 114.474 136.614 114.471L137.63 111.616C137.633 111.609 137.637 111.603 137.643 111.599C137.65 111.594 137.657 111.592 137.664 111.593L138.114 111.6C138.117 111.6 138.119 111.601 138.122 111.602C138.124 111.603 138.126 111.605 138.127 111.607C138.128 111.609 138.129 111.611 138.13 111.614C138.13 111.616 138.13 111.618 138.129 111.621L136.921 114.943C136.916 114.958 136.907 114.971 136.895 114.982C136.882 114.992 136.868 114.999 136.852 115.002C136.851 115.002 136.764 115.002 136.591 115.002C136.418 115.002 136.331 115.002 136.33 115.002C136.314 114.999 136.3 114.992 136.288 114.982C136.275 114.971 136.266 114.958 136.261 114.943L135.051 111.621C135.05 111.619 135.049 111.617 135.05 111.614C135.05 111.612 135.051 111.61 135.052 111.608C135.054 111.606 135.056 111.604 135.058 111.603C135.06 111.602 135.062 111.601 135.065 111.601L135.515 111.593C135.523 111.593 135.53 111.595 135.536 111.6C135.542 111.604 135.547 111.61 135.549 111.617L136.568 114.471C136.569 114.474 136.571 114.478 136.573 114.48C136.575 114.483 136.578 114.485 136.581 114.486C136.584 114.487 136.587 114.488 136.591 114.488Z" fill="black"/>
<path d="M153.66 112.988V113.339C153.66 113.35 153.656 113.359 153.649 113.367C153.641 113.374 153.631 113.378 153.621 113.378H152.21C152.2 113.378 152.19 113.382 152.183 113.389C152.175 113.397 152.171 113.407 152.171 113.417V114.965C152.171 114.975 152.167 114.985 152.16 114.992C152.153 115 152.143 115.004 152.132 115.004H151.759C151.749 115.004 151.739 115 151.731 114.992C151.724 114.985 151.72 114.975 151.72 114.965V111.635C151.72 111.63 151.721 111.625 151.723 111.62C151.725 111.615 151.728 111.611 151.731 111.608C151.735 111.604 151.739 111.601 151.744 111.599C151.749 111.597 151.754 111.596 151.759 111.596H153.847C153.857 111.596 153.867 111.6 153.874 111.608C153.881 111.615 153.885 111.625 153.885 111.635V111.986C153.885 111.996 153.881 112.006 153.874 112.013C153.867 112.021 153.857 112.025 153.847 112.025H152.211C152.201 112.025 152.191 112.029 152.184 112.036C152.176 112.043 152.172 112.053 152.172 112.064V112.911C152.172 112.921 152.176 112.931 152.184 112.938C152.191 112.945 152.201 112.95 152.211 112.95H153.621C153.631 112.95 153.641 112.954 153.649 112.961C153.656 112.968 153.66 112.978 153.66 112.988Z" fill="black"/>
<path d="M160.28 113.416C160.293 113.416 160.304 113.406 160.313 113.386C160.612 112.746 160.886 112.166 161.135 111.645C161.142 111.631 161.153 111.619 161.166 111.61C161.18 111.602 161.195 111.597 161.211 111.597H161.74C161.754 111.597 161.767 111.603 161.777 111.612C161.787 111.622 161.792 111.636 161.792 111.649V114.97C161.792 114.978 161.789 114.987 161.782 114.993C161.776 114.999 161.768 115.003 161.759 115.003H161.372C161.363 115.003 161.355 115 161.349 114.994C161.344 114.988 161.34 114.98 161.34 114.971V112.222C161.34 112.218 161.339 112.213 161.336 112.209C161.333 112.205 161.329 112.203 161.324 112.202C161.319 112.2 161.314 112.201 161.31 112.203C161.306 112.205 161.302 112.209 161.301 112.213L160.46 113.993C160.453 114.008 160.444 114.02 160.432 114.031C160.421 114.041 160.408 114.05 160.393 114.055C160.388 114.057 160.351 114.057 160.28 114.057C160.209 114.057 160.172 114.056 160.167 114.055C160.153 114.05 160.139 114.041 160.128 114.031C160.116 114.02 160.107 114.008 160.101 113.993L159.262 112.212C159.261 112.207 159.258 112.203 159.253 112.2C159.249 112.197 159.244 112.197 159.238 112.198C159.233 112.199 159.229 112.202 159.226 112.206C159.223 112.21 159.221 112.215 159.222 112.221L159.218 114.97C159.218 114.978 159.215 114.986 159.209 114.992C159.203 114.998 159.195 115.001 159.187 115.001H158.8C158.795 115.001 158.791 115 158.787 114.999C158.783 114.997 158.779 114.994 158.776 114.991C158.773 114.988 158.77 114.985 158.769 114.981C158.767 114.976 158.766 114.972 158.766 114.968L158.771 111.648C158.771 111.634 158.776 111.62 158.786 111.611C158.796 111.601 158.809 111.595 158.823 111.595L159.352 111.596C159.368 111.596 159.383 111.601 159.397 111.609C159.41 111.618 159.421 111.63 159.428 111.644C159.677 112.165 159.95 112.746 160.248 113.386C160.257 113.406 160.268 113.416 160.28 113.416Z" fill="black"/>
<path d="M169.351 112.968V113.291C169.351 113.303 169.346 113.314 169.338 113.321C169.33 113.329 169.32 113.334 169.308 113.334H167.621C167.61 113.334 167.599 113.338 167.591 113.346C167.583 113.354 167.579 113.365 167.579 113.376V114.532C167.579 114.543 167.583 114.554 167.591 114.562C167.599 114.57 167.61 114.574 167.621 114.574H169.309C169.321 114.574 169.331 114.579 169.339 114.587C169.347 114.595 169.352 114.606 169.352 114.617V114.961C169.352 114.973 169.347 114.983 169.339 114.991C169.331 114.999 169.321 115.004 169.309 115.004H167.147C167.135 115.004 167.125 114.999 167.117 114.991C167.109 114.983 167.104 114.973 167.104 114.961V111.639C167.104 111.627 167.109 111.617 167.117 111.609C167.125 111.601 167.135 111.596 167.147 111.596H169.307C169.319 111.596 169.33 111.601 169.337 111.609C169.345 111.617 169.35 111.627 169.35 111.639V111.982C169.35 111.994 169.345 112.004 169.337 112.012C169.33 112.02 169.319 112.025 169.307 112.025H167.621C167.61 112.025 167.599 112.029 167.591 112.037C167.583 112.045 167.579 112.056 167.579 112.067V112.884C167.579 112.889 167.58 112.895 167.582 112.9C167.584 112.905 167.587 112.91 167.591 112.914C167.595 112.918 167.6 112.921 167.605 112.923C167.61 112.925 167.616 112.926 167.621 112.926H169.308C169.32 112.926 169.33 112.931 169.338 112.939C169.346 112.946 169.351 112.957 169.351 112.968Z" fill="black"/>
<path d="M172.892 115.003H172.5C172.492 115.003 172.485 115 172.479 114.994C172.474 114.989 172.471 114.981 172.471 114.973V111.626C172.471 111.618 172.474 111.611 172.479 111.605C172.485 111.599 172.492 111.596 172.5 111.596H173.173C173.179 111.596 173.184 111.598 173.189 111.601C173.193 111.604 173.197 111.608 173.2 111.612L174.58 114.226C174.583 114.232 174.588 114.237 174.594 114.239C174.6 114.242 174.607 114.242 174.613 114.241C174.619 114.239 174.625 114.236 174.629 114.231C174.633 114.226 174.636 114.219 174.636 114.213V111.627C174.636 111.619 174.639 111.611 174.645 111.606C174.65 111.6 174.658 111.597 174.666 111.597H175.036C175.043 111.597 175.051 111.6 175.057 111.606C175.062 111.611 175.065 111.619 175.065 111.627V114.972C175.065 114.98 175.062 114.988 175.057 114.993C175.051 114.999 175.043 115.002 175.036 115.002H174.511C174.506 115.002 174.501 115 174.496 114.998C174.491 114.995 174.488 114.991 174.485 114.986L172.978 112.131C172.974 112.125 172.97 112.121 172.964 112.118C172.958 112.116 172.951 112.115 172.944 112.117C172.938 112.118 172.932 112.122 172.928 112.127C172.924 112.132 172.922 112.138 172.922 112.145V114.973C172.922 114.981 172.919 114.989 172.913 114.994C172.907 115 172.9 115.003 172.892 115.003Z" fill="black"/>
<path d="M181.195 114.983C181.196 114.985 181.197 114.987 181.197 114.989C181.197 114.991 181.197 114.993 181.196 114.994C181.195 114.996 181.194 114.998 181.192 114.999C181.19 115 181.188 115.001 181.186 115.001H180.614C180.609 115.001 180.604 115 180.6 114.998C180.595 114.996 180.591 114.993 180.588 114.989L179.46 113.677C179.453 113.668 179.443 113.661 179.433 113.657C179.422 113.652 179.411 113.65 179.399 113.65H178.867C178.858 113.65 178.848 113.653 178.842 113.66C178.835 113.667 178.831 113.675 178.831 113.685V114.963C178.831 114.974 178.827 114.983 178.82 114.991C178.812 114.998 178.803 115.002 178.792 115.002H178.418C178.413 115.002 178.408 115.001 178.403 114.999C178.399 114.997 178.395 114.994 178.391 114.991C178.388 114.987 178.385 114.983 178.383 114.979C178.381 114.974 178.38 114.969 178.38 114.964V111.656C178.38 111.642 178.386 111.628 178.395 111.618C178.405 111.608 178.419 111.602 178.433 111.602C179.128 111.582 179.606 111.594 179.865 111.638C180.318 111.714 180.629 112.083 180.609 112.567C180.591 112.996 180.386 113.302 179.995 113.484C179.987 113.487 179.981 113.492 179.976 113.499C179.971 113.505 179.967 113.513 179.965 113.521C179.963 113.529 179.964 113.537 179.966 113.545C179.968 113.553 179.971 113.56 179.977 113.567L181.195 114.983ZM178.902 113.268C179.338 113.266 179.603 113.245 179.697 113.206C180.244 112.977 180.296 112.225 179.658 112.031C179.563 112.002 179.307 111.994 178.89 112.005C178.874 112.005 178.859 112.012 178.847 112.023C178.836 112.035 178.83 112.05 178.83 112.065V113.197C178.83 113.216 178.838 113.234 178.851 113.247C178.865 113.261 178.883 113.268 178.902 113.268Z" fill="black"/>
<path d="M102.582 114.326L102.093 114.325C102.072 114.325 102.055 114.342 102.055 114.363L102.054 114.964C102.054 114.985 102.071 115.002 102.092 115.002L102.581 115.003C102.602 115.003 102.619 114.986 102.619 114.965L102.62 114.364C102.62 114.343 102.603 114.326 102.582 114.326Z" fill="black"/>
<path d="M108.198 114.325L107.687 114.324C107.666 114.324 107.649 114.341 107.649 114.362L107.648 114.965C107.648 114.986 107.664 115.003 107.685 115.003L108.196 115.004C108.217 115.004 108.234 114.987 108.234 114.966L108.235 114.363C108.236 114.342 108.219 114.325 108.198 114.325Z" fill="black"/>
<path d="M112.734 114.327L112.241 114.325C112.222 114.325 112.206 114.341 112.206 114.361L112.204 114.967C112.204 114.987 112.22 115.003 112.239 115.003L112.732 115.004C112.752 115.004 112.767 114.989 112.767 114.969L112.77 114.362C112.77 114.343 112.754 114.327 112.734 114.327Z" fill="black"/>
<path d="M117.108 114.326L116.618 114.325C116.597 114.325 116.58 114.342 116.58 114.363L116.579 114.964C116.579 114.985 116.596 115.002 116.617 115.002L117.107 115.003C117.127 115.003 117.144 114.986 117.145 114.965L117.146 114.364C117.146 114.343 117.129 114.326 117.108 114.326Z" fill="black"/>
<path d="M134.026 114.327L133.533 114.325C133.514 114.325 133.498 114.341 133.498 114.361L133.496 114.967C133.496 114.987 133.512 115.003 133.531 115.003L134.024 115.004C134.043 115.004 134.059 114.989 134.059 114.969L134.061 114.362C134.061 114.343 134.046 114.327 134.026 114.327Z" fill="black"/>
<path d="M138.963 114.325L138.473 114.324C138.453 114.324 138.436 114.34 138.436 114.361L138.435 114.966C138.435 114.986 138.452 115.003 138.472 115.003L138.961 115.004C138.982 115.004 138.998 114.987 138.998 114.967L139 114.362C139 114.341 138.983 114.325 138.963 114.325Z" fill="black"/>
<path d="M140.297 115.837H140.006C140.001 115.837 139.996 115.836 139.991 115.833C139.986 115.831 139.982 115.827 139.978 115.823C139.975 115.819 139.973 115.814 139.972 115.809C139.97 115.803 139.971 115.798 139.972 115.793L140.353 114.351C140.355 114.343 140.359 114.336 140.366 114.332C140.372 114.327 140.38 114.324 140.387 114.324H140.917C140.923 114.324 140.929 114.326 140.934 114.329C140.939 114.331 140.943 114.335 140.947 114.34C140.95 114.345 140.952 114.351 140.952 114.356C140.953 114.362 140.952 114.368 140.95 114.373L140.33 115.815C140.327 115.822 140.322 115.827 140.317 115.831C140.311 115.835 140.304 115.837 140.297 115.837Z" fill="black"/>
<path d="M163.267 115.839H162.964C162.96 115.839 162.955 115.838 162.951 115.836C162.947 115.834 162.944 115.831 162.941 115.827C162.939 115.824 162.937 115.82 162.936 115.816C162.935 115.811 162.935 115.807 162.936 115.802L163.321 114.347C163.322 114.341 163.326 114.335 163.331 114.331C163.336 114.327 163.342 114.325 163.349 114.325H163.891C163.896 114.325 163.901 114.326 163.905 114.329C163.91 114.331 163.913 114.334 163.916 114.338C163.919 114.342 163.921 114.347 163.921 114.352C163.921 114.357 163.921 114.361 163.919 114.366L163.293 115.821C163.291 115.826 163.287 115.831 163.282 115.834C163.278 115.837 163.272 115.839 163.267 115.839Z" fill="black"/>
<path d="M171.059 114.326L170.569 114.325C170.548 114.325 170.531 114.342 170.531 114.363L170.53 114.964C170.53 114.985 170.547 115.002 170.568 115.002L171.058 115.003C171.078 115.003 171.096 114.986 171.096 114.965L171.097 114.364C171.097 114.343 171.08 114.326 171.059 114.326Z" fill="black"/>
<path d="M176.97 114.327L176.477 114.325C176.458 114.325 176.442 114.341 176.442 114.361L176.44 114.967C176.44 114.987 176.456 115.003 176.475 115.003L176.968 115.004C176.988 115.004 177.003 114.989 177.003 114.969L177.006 114.362C177.006 114.343 176.99 114.327 176.97 114.327Z" fill="black"/>
<path d="M182.607 114.326L182.117 114.325C182.096 114.325 182.079 114.342 182.079 114.363L182.078 114.964C182.078 114.985 182.095 115.002 182.116 115.002L182.606 115.003C182.627 115.003 182.644 114.986 182.644 114.965L182.645 114.364C182.645 114.343 182.628 114.326 182.607 114.326Z" fill="black"/>
</g>
<defs>
<clipPath id="clip0_1655_202">
<rect width="280" height="120" fill="white"/>
</clipPath>
</defs>
</svg>
